<svg width="75" height="44" viewBox="0 0 75 44" fill="none" xmlns="http://www.w3.org/2000/svg">
<path d="M3.9227 1.19149C2.37536 1.85505 0.776843 3.55261 0.273536 5.09563C0.0959915 5.65012 0.0170857 6.97281 0.0879858 8.0297C0.263648 10.5037 1.40927 12.4638 3.89696 14.6035C5.83228 16.3158 5.83251 16.3398 5.00957 19.5202C4.65743 20.9417 4.84858 21.8292 5.83601 23.1658C6.73092 24.3832 8.56556 25.111 11.3399 25.3492C12.4376 25.459 13.4137 25.594 13.5058 25.6652C13.5978 25.7365 13.1762 26.2452 12.6026 26.8034C9.73409 29.4984 8.59015 34.1721 10.1679 36.729C10.8173 37.7564 12.2248 38.4161 14.3291 38.6606C17.0432 38.9715 18.1145 39.5142 19.7775 41.4213C20.609 42.3749 21.5926 43.303 21.9595 43.4438C22.9999 43.9387 24.8895 44.041 27.0495 43.7322C31.7949 43.0144 33.6674 41.2903 35.5349 35.8166L36.3653 33.4293L36.5896 34.6049C36.7178 35.2767 37.0074 36.9083 37.2031 38.2765C37.464 40.1007 37.7143 40.7954 38.0502 40.8884C38.8447 41.1453 39.3234 40.2274 39.3371 38.4486L39.321 36.7423L39.9731 38.0581C40.9978 40.1154 42.5369 41.8074 44.0977 42.5618C45.7198 43.3637 49.0754 43.8608 51.0837 43.6256C52.7874 43.3932 53.5746 42.881 55.1104 40.9917C56.586 39.1752 57.3741 38.7591 60.2633 38.2512C64.2779 37.5643 65.3624 36.2802 65.0852 32.7256C64.8795 30.2999 64.0091 28.4574 62.1943 26.5998C61.4562 25.8617 60.9018 25.2179 60.9623 25.1693C61.0228 25.1207 62.0266 24.967 63.2134 24.8356C68.5694 24.2563 70.5573 21.858 69.0874 17.8099C68.806 17.0434 68.6453 16.1556 68.7642 15.842C68.8526 15.5287 69.6964 14.5594 70.6327 13.7093C72.687 11.8872 73.6468 10.2918 74.0228 8.17318C74.8005 3.43087 71.8137 0.0460278 66.8789 0.0685642C62.6754 0.108235 55.331 3.03776 49.5196 7.01038C46.2206 9.2768 41.9624 13.2107 40.0368 15.7526C39.676 16.2608 39.3144 16.6728 39.2535 16.6734C39.1925 16.6739 38.8843 16.2923 38.6059 15.8382C37.9867 14.7865 38.1547 13.2226 39.1999 11.0015C40.0958 9.09425 41.9019 6.79384 42.5111 6.78809C43.0289 6.78321 43.1144 6.15748 42.6248 5.92175C41.7069 5.49777 38.7335 9.99642 37.9999 12.9597C37.5593 14.6944 37.2292 15.2263 36.5898 15.2564C36.4375 15.2578 36.3436 14.9943 36.3407 14.6819C36.3318 13.7446 34.8691 10.4655 33.851 9.10512C33.3573 8.43678 32.5276 7.67548 32.0078 7.46407C31.5181 7.22833 31.089 6.94396 31.0881 6.84783C31.0847 6.48733 30.2334 6.66361 30.0542 7.04987C29.7851 7.58119 30.1233 7.91449 30.7919 7.73994C32.2201 7.36593 34.4072 9.9411 35.4437 13.2482C36.0093 15.0696 36.0438 15.5019 35.716 16.2741L35.3589 17.1668L33.6029 15.0923C28.5203 9.13139 20.6432 4.03811 12.9141 1.70752C8.88136 0.471699 5.98583 0.306744 3.9227 1.19149Z" fill="black"/>
</svg>
