<svg width="51" height="48" viewBox="0 0 51 48" fill="none" xmlns="http://www.w3.org/2000/svg">
<path d="M40.375 6C41.5022 6 42.5832 6.42143 43.3802 7.17157C44.1772 7.92172 44.625 8.93913 44.625 10V38C44.625 39.0609 44.1772 40.0783 43.3802 40.8284C42.5832 41.5786 41.5022 42 40.375 42H10.625C9.49783 42 8.41683 41.5786 7.6198 40.8284C6.82277 40.0783 6.375 39.0609 6.375 38V10C6.375 8.93913 6.82277 7.92172 7.6198 7.17157C8.41683 6.42143 9.49783 6 10.625 6H40.375ZM39.3125 37V26.4C39.3125 24.6708 38.5826 23.0124 37.2835 21.7897C35.9843 20.5669 34.2223 19.88 32.385 19.88C30.5787 19.88 28.475 20.92 27.455 22.48V20.26H21.5263V37H27.455V27.14C27.455 25.6 28.7725 24.34 30.4088 24.34C31.1978 24.34 31.9545 24.635 32.5124 25.1601C33.0703 25.6852 33.3838 26.3974 33.3838 27.14V37H39.3125ZM14.62 17.12C15.5668 17.12 16.4749 16.766 17.1444 16.1359C17.8139 15.5058 18.19 14.6511 18.19 13.76C18.19 11.9 16.5963 10.38 14.62 10.38C13.6675 10.38 12.7541 10.7361 12.0806 11.37C11.4071 12.0039 11.0288 12.8636 11.0288 13.76C11.0288 15.62 12.6438 17.12 14.62 17.12ZM17.5738 37V20.26H11.6875V37H17.5738Z" fill="black"/>
</svg>
