<svg width="51" height="48" viewBox="0 0 51 48" fill="none" xmlns="http://www.w3.org/2000/svg">
<path d="M25.5 4C22.7094 4 19.9461 4.51732 17.368 5.52241C14.7898 6.5275 12.4472 8.00069 10.474 9.85786C6.48883 13.6086 4.25 18.6957 4.25 24C4.25 32.84 10.3488 40.34 18.785 43C19.8475 43.16 20.1875 42.54 20.1875 42V38.62C14.3013 39.82 13.0475 35.94 13.0475 35.94C12.07 33.62 10.6888 33 10.6888 33C8.755 31.76 10.8375 31.8 10.8375 31.8C12.9625 31.94 14.0888 33.86 14.0888 33.86C15.9375 36.9 19.0612 36 20.2725 35.52C20.4637 34.22 21.0163 33.34 21.6113 32.84C16.8938 32.34 11.9425 30.62 11.9425 23C11.9425 20.78 12.75 19 14.1313 17.58C13.9188 17.08 13.175 15 14.3438 12.3C14.3438 12.3 16.1288 11.76 20.1875 14.34C21.8663 13.9 23.6937 13.68 25.5 13.68C27.3063 13.68 29.1337 13.9 30.8125 14.34C34.8712 11.76 36.6562 12.3 36.6562 12.3C37.825 15 37.0813 17.08 36.8688 17.58C38.25 19 39.0575 20.78 39.0575 23C39.0575 30.64 34.085 32.32 29.3463 32.82C30.1113 33.44 30.8125 34.66 30.8125 36.52V42C30.8125 42.54 31.1525 43.18 32.2363 43C40.6725 40.32 46.75 32.84 46.75 24C46.75 21.3736 46.2004 18.7728 45.1324 16.3463C44.0645 13.9198 42.4993 11.715 40.526 9.85786C38.5528 8.00069 36.2102 6.5275 33.632 5.52241C31.0539 4.51732 28.2906 4 25.5 4Z" fill="black"/>
</svg>
