<svg width="51" height="48" viewBox="0 0 51 48" fill="none" xmlns="http://www.w3.org/2000/svg">
<path d="M16.575 4H34.425C41.225 4 46.75 9.2 46.75 15.6V32.4C46.75 35.4765 45.4515 38.427 43.1401 40.6024C40.8287 42.7779 37.6938 44 34.425 44H16.575C9.775 44 4.25 38.8 4.25 32.4V15.6C4.25 12.5235 5.54852 9.57298 7.85991 7.39756C10.1713 5.22214 13.3062 4 16.575 4ZM16.15 8C14.1211 8 12.1753 8.75857 10.7406 10.1088C9.30598 11.4591 8.5 13.2904 8.5 15.2V32.8C8.5 36.78 11.9212 40 16.15 40H34.85C36.8789 40 38.8247 39.2414 40.2594 37.8912C41.694 36.5409 42.5 34.7096 42.5 32.8V15.2C42.5 11.22 39.0787 8 34.85 8H16.15ZM36.6562 11C37.3607 11 38.0364 11.2634 38.5345 11.7322C39.0326 12.2011 39.3125 12.837 39.3125 13.5C39.3125 14.163 39.0326 14.7989 38.5345 15.2678C38.0364 15.7366 37.3607 16 36.6562 16C35.9518 16 35.2761 15.7366 34.778 15.2678C34.2799 14.7989 34 14.163 34 13.5C34 12.837 34.2799 12.2011 34.778 11.7322C35.2761 11.2634 35.9518 11 36.6562 11ZM25.5 14C28.3179 14 31.0204 15.0536 33.013 16.9289C35.0056 18.8043 36.125 21.3478 36.125 24C36.125 26.6522 35.0056 29.1957 33.013 31.0711C31.0204 32.9464 28.3179 34 25.5 34C22.6821 34 19.9796 32.9464 17.987 31.0711C15.9944 29.1957 14.875 26.6522 14.875 24C14.875 21.3478 15.9944 18.8043 17.987 16.9289C19.9796 15.0536 22.6821 14 25.5 14ZM25.5 18C23.8092 18 22.1877 18.6321 20.9922 19.7574C19.7966 20.8826 19.125 22.4087 19.125 24C19.125 25.5913 19.7966 27.1174 20.9922 28.2426C22.1877 29.3679 23.8092 30 25.5 30C27.1908 30 28.8123 29.3679 30.0078 28.2426C31.2034 27.1174 31.875 25.5913 31.875 24C31.875 22.4087 31.2034 20.8826 30.0078 19.7574C28.8123 18.6321 27.1908 18 25.5 18Z" fill="black"/>
</svg>
